<svg width="60" height="60" viewBox="0 0 60 60" fill="none" xmlns="http://www.w3.org/2000/svg">
<path fill-rule="evenodd" clip-rule="evenodd" d="M30 5C16.1929 5 5 16.1928 5 30C5 43.8071 16.1929 55 30 55C43.8072 55 55 43.8071 55 30C55 16.1928 43.8072 5 30 5ZM30 50C18.972 50 10 41.028 10 30C10 18.972 18.972 10 30 10C41.0281 10 50 18.972 50 30C50 41.028 41.0281 50 30 50ZM33.1305 20C33.1305 21.8126 31.8107 23.125 30.0254 23.125C28.1678 23.125 26.8805 21.8126 26.8805 19.9653C26.8805 18.1899 28.2027 16.875 30.0254 16.875C31.8107 16.875 33.1305 18.1899 33.1305 20ZM27.5055 27.5H32.5055V42.5H27.5055V27.5Z" fill="black"/>
</svg>
